<svg width="68" height="25" viewBox="0 0 68 25" fill="none" xmlns="http://www.w3.org/2000/svg">
<path d="M1 20.2472V16.5472H8.47654V1.50048C8.47654 1.50048 12.7021 0.374397 15.0862 1.50048C16.5949 2.21306 17.5943 2.84047 18.4453 4.33715C20.5489 8.03716 19.6319 11.5056 17.0366 13.8338C14.6438 15.9805 9.23503 13.8338 9.23503 13.8338" stroke="#004182" stroke-width="1.5" stroke-linecap="round"/>
<path d="M11.6188 14.5739L16.5198 22.9605L20.1789 18.7672" stroke="#004182" stroke-width="1.5" stroke-linecap="round"/>
<path d="M26.4637 8.1705C27.6097 8.17056 28.7309 8.85007 29.5985 10.1197C30.4635 11.3856 31.0232 13.1759 31.0233 15.19C31.0233 17.2044 30.4636 18.9953 29.5985 20.2613C28.7309 21.531 27.6097 22.2105 26.4637 22.2105C25.3178 22.2105 24.1966 21.531 23.329 20.2613C22.4639 18.9953 21.9042 17.2045 21.9042 15.19C21.9043 13.1758 22.4639 11.3856 23.329 10.1197C24.1966 8.85003 25.3178 8.1705 26.4637 8.1705Z" stroke="#004182" stroke-width="1.5"/>
<path d="M33.4825 7.91382C33.4825 7.91382 33.0492 14.5738 33.4825 17.7805C33.9158 20.9872 35.4328 22.0972 36.083 22.4672C36.7332 22.8372 39.5503 23.4538 40.959 22.4672C42.3677 21.4805 43.1262 20.2472 43.5596 17.7805C43.993 15.3138 43.5596 7.91382 43.5596 7.91382" stroke="#004182" stroke-width="1.5" stroke-linecap="round"/>
<path d="M46.2597 1.00717C46.2597 1.00717 46.1514 18.6439 46.2597 19.3839C46.368 20.1239 47.6684 21.4805 48.1017 21.8505C48.5351 22.2205 49.4951 22.8544 50.4856 22.8372C51.4364 22.8208 51.9928 22.4884 52.761 21.8505C53.6157 21.1409 54.0079 20.5083 54.3864 19.3839C54.618 18.6959 54.6927 18.2703 54.7114 17.5339" stroke="#004182" stroke-width="1.5" stroke-linecap="round"/>
<path d="M46.5366 8.16049H54.88" stroke="#004182" stroke-width="1.5" stroke-linecap="round"/>
<path d="M66.9995 17.9792C66.9995 17.9792 66.3712 20.186 65.4825 21.1858C64.6874 22.0804 64.0902 22.5608 62.9903 22.7892C61.9835 22.9983 61.3362 22.8627 60.3898 22.4192C59.6844 22.0886 59.311 21.7917 58.7645 21.1858C57.8693 20.1935 57.5886 19.3474 57.2475 17.9792C56.9803 16.9074 56.9805 15.1425 56.9805 15.1425M56.9805 15.1425C56.9805 15.1425 56.9481 14.3952 56.9805 14.1558C57.2475 12.1825 58.5477 10.0858 58.5477 10.0858C58.5477 10.0858 59.3063 8.83224 60.3898 8.48248C61.1633 8.23281 62.2028 8.05169 62.9903 8.23582C64.0657 8.48722 64.6732 8.87165 65.4825 9.71582C66.0243 10.2809 66.5005 11.0916 66.7828 12.3058C67.0209 13.3302 66.9995 15.1425 66.9995 15.1425H56.9805Z" stroke="#004182" stroke-width="1.5" stroke-linecap="round"/>
</svg>
